<svg width="38" height="38" viewBox="0 0 38 38" fill="none" xmlns="http://www.w3.org/2000/svg">
<g clip-path="url(#clip0_1304_1068)">
<path d="M30.0833 0H7.91667C3.55142 0 0 3.55142 0 7.91667V30.0833C0 34.4486 3.55142 38 7.91667 38H30.0833C34.4486 38 38 34.4486 38 30.0833V7.91667C38 3.55142 34.4486 0 30.0833 0ZM25.3333 20.5833H20.5833V25.3333C20.5833 26.2089 19.874 26.9167 19 26.9167C18.126 26.9167 17.4167 26.2089 17.4167 25.3333V20.5833H12.6667C11.7927 20.5833 11.0833 19.8756 11.0833 19C11.0833 18.1244 11.7927 17.4167 12.6667 17.4167H17.4167V12.6667C17.4167 11.7911 18.126 11.0833 19 11.0833C19.874 11.0833 20.5833 11.7911 20.5833 12.6667V17.4167H25.3333C26.2073 17.4167 26.9167 18.1244 26.9167 19C26.9167 19.8756 26.2073 20.5833 25.3333 20.5833Z" fill="#FF005C"/>
</g>
<defs>
<clipPath id="clip0_1304_1068">
<rect width="38" height="38" fill="white"/>
</clipPath>
</defs>
</svg>
